<?xml version="1.0" encoding="UTF-8" standalone="no"?>
<!-- Created with Inkscape (http://www.inkscape.org/) -->

<svg
   xmlns:dc="http://purl.org/dc/elements/1.1/"
   xmlns:cc="http://creativecommons.org/ns#"
   xmlns:rdf="http://www.w3.org/1999/02/22-rdf-syntax-ns#"
   xmlns:svg="http://www.w3.org/2000/svg"
   xmlns="http://www.w3.org/2000/svg"
   xmlns:xlink="http://www.w3.org/1999/xlink"
   xmlns:sodipodi="http://sodipodi.sourceforge.net/DTD/sodipodi-0.dtd"
   xmlns:inkscape="http://www.inkscape.org/namespaces/inkscape"
   width="1093.3716"
   height="378.51999"
   viewBox="0 0 289.2879 100.15008"
   version="1.1"
   id="svg8"
   inkscape:version="0.92.3 (2405546, 2018-03-11)"
   sodipodi:docname="influencias_externas.svg">
  <defs
     id="defs2" />
  <sodipodi:namedview
     id="base"
     pagecolor="#ffffff"
     bordercolor="#666666"
     borderopacity="1.0"
     inkscape:pageopacity="0.0"
     inkscape:pageshadow="2"
     inkscape:zoom="1.2909179"
     inkscape:cx="596.54729"
     inkscape:cy="118.76414"
     inkscape:document-units="mm"
     inkscape:current-layer="layer1"
     showgrid="false"
     showguides="false"
     inkscape:window-width="1853"
     inkscape:window-height="1025"
     inkscape:window-x="67"
     inkscape:window-y="27"
     inkscape:window-maximized="1"
     fit-margin-top="0"
     fit-margin-left="0"
     fit-margin-right="0"
     fit-margin-bottom="0"
     units="px" />
  <metadata
     id="metadata5">
    <rdf:RDF>
      <cc:Work
         rdf:about="">
        <dc:format>image/svg+xml</dc:format>
        <dc:type
           rdf:resource="http://purl.org/dc/dcmitype/StillImage" />
        <dc:title></dc:title>
      </cc:Work>
    </rdf:RDF>
  </metadata>
  <g
     inkscape:label="Camada 1"
     inkscape:groupmode="layer"
     id="layer1"
     transform="translate(-1.1358788,-142.49056)">
    <text
       xml:space="preserve"
       style="font-style:normal;font-weight:normal;font-size:10.58333302px;line-height:1.25;font-family:sans-serif;letter-spacing:0px;word-spacing:0px;fill:#0000ff;fill-opacity:1;stroke:none;stroke-width:0.26458332"
       x="232.25677"
       y="114.98435"
       id="telurica"
       inkscape:label="#telurica"
       transform="rotate(15)"><tspan
         sodipodi:role="line"
         x="232.25677"
         y="114.98435"
         style="font-style:normal;font-variant:normal;font-weight:normal;font-stretch:normal;font-family:Madelican;-inkscape-font-specification:Madelican;fill:#0000ff;stroke-width:0.26458332"
         id="tspan43">Energia Telúrica</tspan></text>
    <text
       xml:space="preserve"
       style="font-style:normal;font-weight:normal;font-size:14.8173008px;line-height:1.25;font-family:sans-serif;letter-spacing:0px;word-spacing:0px;fill:#0000ff;fill-opacity:1;stroke:none;stroke-width:0.3704325"
       x="-70.864914"
       y="179.37497"
       id="pessoas"
       transform="rotate(-30)"><tspan
         sodipodi:role="line"
         x="-70.864914"
         y="179.37497"
         style="font-style:normal;font-variant:normal;font-weight:normal;font-stretch:normal;font-size:10.58333302px;font-family:Madelican;-inkscape-font-specification:Madelican;fill:#0000ff;stroke-width:0.3704325"
         id="tspan425">Energia de Pessoas</tspan></text>
    <text
       id="profissional"
       y="164.24342"
       x="94.818375"
       style="font-style:normal;font-weight:normal;font-size:14.8173008px;line-height:1.25;font-family:sans-serif;letter-spacing:0px;word-spacing:0px;fill:#0000ff;fill-opacity:1;stroke:none;stroke-width:0.3704325"
       xml:space="preserve"><tspan
         id="tspan573"
         style="font-style:normal;font-variant:normal;font-weight:normal;font-stretch:normal;font-size:10.58333302px;font-family:Madelican;-inkscape-font-specification:Madelican;fill:#0000ff;stroke-width:0.3704325"
         y="164.24342"
         x="94.818375"
         sodipodi:role="line">Ambiente Profissional</tspan></text>
    <text
       xml:space="preserve"
       style="font-style:normal;font-weight:normal;font-size:14.8173008px;line-height:1.25;font-family:sans-serif;letter-spacing:0px;word-spacing:0px;fill:#0000ff;fill-opacity:1;stroke:none;stroke-width:0.3704325"
       x="-58.357006"
       y="233.64253"
       id="familiar"
       transform="rotate(-15)"><tspan
         sodipodi:role="line"
         x="-58.357006"
         y="233.64253"
         style="font-style:normal;font-variant:normal;font-weight:normal;font-stretch:normal;font-size:10.58333302px;font-family:Madelican;-inkscape-font-specification:Madelican;fill:#0000ff;stroke-width:0.3704325"
         id="tspan625">Ambiente Familiar</tspan></text>
    <text
       id="sff"
       y="233.65181"
       x="118.8877"
       style="font-style:normal;font-weight:normal;font-size:14.8173008px;line-height:1.25;font-family:sans-serif;letter-spacing:0px;word-spacing:0px;fill:#0000ff;fill-opacity:1;stroke:none;stroke-width:0.3704325"
       xml:space="preserve"><tspan
         id="tspan698"
         style="font-style:normal;font-variant:normal;font-weight:normal;font-stretch:normal;font-size:10.58333302px;font-family:Madelican;-inkscape-font-specification:Madelican;fill:#0000ff;stroke-width:0.3704325"
         y="233.65181"
         x="118.8877"
         sodipodi:role="line">S.F.F.</tspan></text>
    <text
       xml:space="preserve"
       style="font-style:normal;font-weight:normal;font-size:14.8173008px;line-height:1.25;font-family:sans-serif;letter-spacing:0px;word-spacing:0px;fill:#0000ff;fill-opacity:1;stroke:none;stroke-width:0.3704325"
       x="231.75681"
       y="204.25014"
       id="outra_externa"><tspan
         sodipodi:role="line"
         x="231.75681"
         y="204.25014"
         style="font-style:normal;font-variant:normal;font-weight:normal;font-stretch:normal;font-size:10.58333302px;font-family:Madelican;-inkscape-font-specification:Madelican;fill:#0000ff;stroke-width:0.3704325"
         id="tspan723">Outra</tspan><tspan
         sodipodi:role="line"
         x="231.75681"
         y="224.04414"
         style="font-style:normal;font-variant:normal;font-weight:normal;font-stretch:normal;font-size:10.58333302px;font-family:Madelican;-inkscape-font-specification:Madelican;fill:#0000ff;stroke-width:0.3704325"
         id="tspan725" /></text>
    <text
       xml:space="preserve"
       style="font-style:normal;font-weight:normal;font-size:14.8173008px;line-height:1.25;font-family:sans-serif;letter-spacing:0px;word-spacing:0px;fill:#0000ff;fill-opacity:1;stroke:none;stroke-width:0.3704325"
       x="0.64428431"
       y="202.55557"
       id="relacionamento"
       inkscape:label="#relacionamento"><tspan
         sodipodi:role="line"
         x="0.64428431"
         y="202.55557"
         style="font-style:normal;font-variant:normal;font-weight:normal;font-stretch:normal;font-size:10.58333302px;font-family:Madelican;-inkscape-font-specification:Madelican;fill:#0000ff;stroke-width:0.3704325"
         id="tspan733">Relacionamento</tspan><tspan
         sodipodi:role="line"
         x="0.64428431"
         y="222.34958"
         style="font-style:normal;font-variant:normal;font-weight:normal;font-stretch:normal;font-size:10.58333302px;font-family:Madelican;-inkscape-font-specification:Madelican;fill:#0000ff;stroke-width:0.3704325"
         id="tspan735" /></text>
    <text
       xml:space="preserve"
       style="font-style:normal;font-weight:normal;font-size:10.58333302px;line-height:1.25;font-family:sans-serif;letter-spacing:0px;word-spacing:0px;fill:#000000;fill-opacity:1;stroke:none;stroke-width:0.26458332"
       id="text921"
       transform="translate(0,-1.5875)"><textPath
         xlink:href="#path923"
         id="textPath925"
         style="font-style:normal;font-variant:normal;font-weight:normal;font-stretch:normal;font-size:16.93333244px;font-family:Madelican;-inkscape-font-specification:Madelican">Influências Externas</textPath></text>
    <ellipse
       style="opacity:1;fill:none;fill-opacity:1;stroke:#000000;stroke-width:0.99953008;stroke-linejoin:round;stroke-miterlimit:4;stroke-dasharray:none;stroke-dashoffset:0;stroke-opacity:1"
       id="path923"
       transform="scale(-1)"
       ry="10.091334"
       rx="70.309311"
       cy="-199.89406"
       cx="-149.44586" />
    <path
       id="path1098"
       d="m 75.64603,206.20319 c -0.11119,-0.11119 -0.16096,-0.73766 -0.16096,-2.02626 0,-1.27441 -0.0503,-1.91561 -0.15875,-2.02407 -0.2802,-0.2802 -0.89101,-0.17505 -3.68842,0.635 -2.65301,0.76824 -3.29486,0.9034 -3.29813,0.69453 -0.0497,-3.17773 0.01,-6.84098 0.11253,-6.94383 0.088,-0.0881 1.17224,0.1663 3.24704,0.76175 4.00135,1.14835 3.78573,1.2234 3.78573,-1.3177 0,-1.86405 0.0501,-2.19058 0.33594,-2.19058 0.0964,0 1.14799,1.14598 2.33679,2.54661 2.94674,3.47185 2.88371,3.39061 2.88205,3.71432 -9.2e-4,0.17826 -0.83271,1.26777 -2.18899,2.86719 -2.75263,3.24612 -2.99425,3.49363 -3.20483,3.28304 z"
       style="fill:#000000;stroke-width:0.13229167"
       inkscape:connector-curvature="0" />
    <path
       inkscape:connector-curvature="0"
       style="fill:#000000;stroke-width:0.13229167"
       d="m 221.53587,193.84753 c 0.11119,0.11119 0.16096,0.73766 0.16096,2.02626 0,1.27441 0.0503,1.91561 0.15875,2.02407 0.2802,0.2802 0.89101,0.17505 3.68842,-0.635 2.65301,-0.76824 3.29486,-0.9034 3.29813,-0.69453 0.0497,3.17773 -0.01,6.84098 -0.11253,6.94383 -0.088,0.0881 -1.17224,-0.1663 -3.24704,-0.76175 -4.00135,-1.14835 -3.78573,-1.2234 -3.78573,1.3177 0,1.86405 -0.0501,2.19058 -0.33594,2.19058 -0.0964,0 -1.14799,-1.14598 -2.33679,-2.54661 -2.94674,-3.47185 -2.88371,-3.39061 -2.88205,-3.71432 9.2e-4,-0.17826 0.83271,-1.26777 2.18899,-2.86719 2.75263,-3.24612 2.99425,-3.49363 3.20483,-3.28304 z"
       id="path1100" />
    <path
       id="path1104"
       d="m 207.74417,203.02019 c 2e-5,0.15723 -0.4078,0.63543 -1.31897,1.54659 -0.90115,0.90116 -1.31898,1.39012 -1.31898,1.5435 0,0.39625 0.50623,0.75383 3.05712,2.15909 2.41918,1.33274 2.96859,1.69106 2.82324,1.84102 -2.21186,2.28214 -4.84438,4.83024 -4.98961,4.83046 -0.12451,7e-5 -0.7113,-0.94649 -1.75736,-2.83465 -2.01738,-3.64138 -1.81184,-3.54198 -3.60867,-1.74515 -1.31808,1.31808 -1.5844,1.51355 -1.78652,1.31143 -0.0682,-0.0682 -0.001,-1.62208 0.14837,-3.4531 0.3713,-4.53862 0.35843,-4.4366 0.5885,-4.66432 0.12669,-0.12541 1.48526,-0.30763 3.57525,-0.47956 4.24176,-0.34895 4.58763,-0.35312 4.58763,-0.0553 z"
       style="fill:#000000;stroke-width:0.13229167"
       inkscape:connector-curvature="0" />
    <path
       inkscape:connector-curvature="0"
       style="fill:#000000;stroke-width:0.13229167"
       d="m 186.81121,206.96908 c -0.0786,0.13617 -0.67088,0.34639 -1.91555,0.67989 -1.23101,0.32987 -1.83733,0.5444 -1.91403,0.67723 -0.19812,0.34316 0.0615,0.90595 1.568,3.39839 1.42871,2.36377 1.72535,2.94879 1.52448,3.00599 -3.05658,0.87046 -6.61047,1.76091 -6.73635,1.6885 -0.10786,-0.0622 -0.14276,-1.17534 -0.10459,-3.33357 0.0736,-4.16221 0.20189,-3.97337 -2.25263,-3.31568 -1.80053,0.48244 -2.1289,0.51857 -2.20288,0.24247 -0.025,-0.0931 0.80983,-1.40546 1.85504,-2.91629 2.59087,-3.74491 2.5287,-3.66299 2.84181,-3.74516 0.17244,-0.0453 1.44008,0.47625 3.33604,1.37231 3.84795,1.81869 4.14957,1.988 4.00065,2.24593 z"
       id="path1106" />
    <path
       id="path1108"
       d="m 165.13653,208.62206 c -0.11115,0.11119 -0.73767,0.16095 -2.02625,0.16094 -1.27443,2e-5 -1.91563,0.0503 -2.02409,0.15877 -0.28018,0.28019 -0.17508,0.891 0.635,3.68842 0.76824,2.653 0.90337,3.29487 0.69453,3.29813 -3.17772,0.0497 -6.84098,-0.01 -6.94383,-0.11253 -0.0881,-0.088 0.16631,-1.17224 0.76177,-3.24705 1.14833,-4.00134 1.22339,-3.78573 -1.31771,-3.78573 -1.86404,-1e-5 -2.19058,-0.0501 -2.19058,-0.33594 -2e-5,-0.0964 1.14599,-1.14797 2.54662,-2.3368 3.47184,-2.94674 3.39059,-2.8837 3.7143,-2.88203 0.17829,8.8e-4 1.26775,0.83274 2.86719,2.18898 3.24612,2.75264 3.49364,2.99425 3.28304,3.20485 z"
       style="fill:#000000;stroke-width:0.13229167"
       inkscape:connector-curvature="0" />
    <path
       inkscape:connector-curvature="0"
       style="fill:#000000;stroke-width:0.13229167"
       d="m 145.5966,212.37056 c -0.13614,0.0786 -0.75419,-0.0355 -1.99886,-0.36897 -1.23101,-0.32983 -1.86337,-0.44722 -1.99621,-0.37052 -0.34315,0.19813 -0.39972,0.81533 -0.34127,3.72709 0.0554,2.76144 0.0198,3.41641 -0.18275,3.36551 -3.08231,-0.77445 -6.60529,-1.78023 -6.6781,-1.90589 -0.0623,-0.1078 0.46403,-1.08925 1.57621,-2.93925 2.14483,-3.56779 2.16152,-3.3401 -0.29299,-3.99778 -1.80053,-0.48246 -2.10298,-0.61536 -2.02899,-0.89146 0.0249,-0.0931 1.40406,-0.81225 3.06466,-1.59806 4.11621,-1.94775 4.02141,-1.90789 4.33365,-1.8225 0.17199,0.047 1.00902,1.13248 2.20294,2.85648 2.42308,3.499 2.59963,3.79644 2.3417,3.94536 z"
       id="path1110" />
    <path
       id="path1112"
       d="m 120.46196,212.83951 c -0.15184,0.0407 -0.71931,-0.22949 -1.83526,-0.87374 -1.1037,-0.6372 -1.68412,-0.91425 -1.83229,-0.87455 -0.38274,0.10257 -0.59712,0.68409 -1.29428,3.51177 -0.66119,2.68169 -0.8651,3.30512 -1.04759,3.20353 -2.77684,-1.54582 -5.91946,-3.42915 -5.95727,-3.56937 -0.0323,-0.12025 0.73014,-0.93203 2.28324,-2.43114 2.99516,-2.8911 2.95235,-2.66685 0.75169,-3.93739 -1.6143,-0.93203 -1.87205,-1.13869 -1.72913,-1.38623 0.0482,-0.0835 1.56645,-0.42118 3.37385,-0.75041 4.48007,-0.81603 4.37818,-0.80207 4.65769,-0.63877 0.15396,0.0899 0.68153,1.35504 1.38857,3.32931 1.4349,4.00691 1.52845,4.33991 1.24077,4.417 z"
       style="fill:#000000;stroke-width:0.13229167"
       inkscape:connector-curvature="0" />
    <path
       inkscape:connector-curvature="0"
       style="fill:#000000;stroke-width:0.13229167"
       d="m 96.204118,213.09506 c -0.151849,-0.0407 -0.508191,-0.55839 -1.152508,-1.6743 -0.637233,-1.10368 -1.001372,-1.63382 -1.149542,-1.67354 -0.382745,-0.10253 -0.859164,0.29389 -2.876764,2.39415 -1.913446,1.99182 -2.401757,2.42977 -2.508998,2.25055 -1.631903,-2.72714 -3.411834,-5.92947 -3.374462,-6.0698 0.03216,-0.12028 1.098335,-0.44209 3.19291,-0.96381 4.039432,-1.0062 3.890237,-0.83338 2.619679,-3.03404 -0.932013,-1.61431 -1.051896,-1.92216 -0.804354,-2.06507 0.08348,-0.0482 1.567066,0.41886 3.297041,1.03704 4.287869,1.53334 4.192654,1.49448 4.35306,1.77566 0.08839,0.15483 -0.0873,1.51426 -0.462118,3.57755 -0.760793,4.18754 -0.846273,4.5227 -1.13396,4.44562 z"
       id="path1114" />
    <path
       inkscape:connector-curvature="0"
       style="fill:#000000;stroke-width:0.08903186"
       d="m 92.07825,176.25608 c 0.03681,0.0161 0.501226,0.39019 1.031353,0.83094 0.530076,0.4407 0.996013,0.81309 1.035334,0.82761 0.09,0.0324 0.543961,-0.70486 0.741916,-1.2058 0.488175,-1.23514 0.161612,-2.63318 -0.9555,-4.08997 l -0.490593,-0.63984 0.331214,0.13679 c 0.746068,0.30825 1.786717,1.00165 2.383292,1.58796 0.838052,0.82362 1.128132,1.41289 1.179762,2.39697 0.0496,0.94462 -0.1232,1.63487 -0.687637,2.74673 l -0.441783,0.87019 0.328759,0.20424 c 0.180745,0.11241 0.561441,0.33604 0.845658,0.49749 0.28458,0.16083 0.504717,0.30537 0.48947,0.32058 -0.0388,0.0388 -5.667753,1.55571 -5.773015,1.55568 -0.05341,-3e-5 -0.08588,-1.14554 -0.08587,-3.03449 9e-6,-1.66899 0.03036,-3.02116 0.0674,-3.0048 z"
       id="path1116" />
    <text
       id="provocada"
       y="159.33868"
       x="258.02875"
       style="font-style:normal;font-weight:normal;font-size:10.58333302px;line-height:1.25;font-family:sans-serif;letter-spacing:0px;word-spacing:0px;fill:#0000ff;fill-opacity:1;stroke:none;stroke-width:0.26458332"
       xml:space="preserve"
       inkscape:label="#provocada"
       transform="rotate(15)"><tspan
         id="tspan357"
         style="font-style:normal;font-variant:normal;font-weight:normal;font-stretch:normal;font-family:Madelican;-inkscape-font-specification:Madelican;fill:#0000ff;stroke-width:0.26458332"
         y="159.33868"
         x="258.02875"
         sodipodi:role="line">Energia Provocada</tspan></text>
    <path
       id="path1735"
       d="m 151.34875,181.23601 c 0.0375,-0.0146 0.63032,-0.0785 1.31684,-0.1417 0.68645,-0.0632 1.27924,-0.12935 1.31731,-0.14689 0.0868,-0.0403 -0.11378,-0.88305 -0.32803,-1.37724 -0.52818,-1.21858 -1.74767,-1.97622 -3.5677,-2.21641 l -0.79934,-0.10553 0.33096,-0.13743 c 0.74552,-0.30957 1.97167,-0.55516 2.80811,-0.56238 1.17499,-0.0102 1.79679,0.20137 2.52915,0.86071 0.70301,0.63287 1.06891,1.24314 1.45603,2.42845 l 0.30298,0.92771 0.37686,-0.0881 c 0.20728,-0.0484 0.63462,-0.1594 0.94965,-0.24663 0.31503,-0.0872 0.5728,-0.14099 0.57281,-0.1194 0,0.0549 -2.90768,5.10776 -2.98213,5.18217 -0.0378,0.0378 -0.87075,-0.74929 -2.20643,-2.08498 -1.18017,-1.18017 -2.11484,-2.15776 -2.07707,-2.17239 z"
       style="fill:#000000;stroke-width:0.08903186"
       inkscape:connector-curvature="0" />
    <path
       id="path1495"
       d="m 220.66651,184.19362 c 0.0366,0.0171 0.50121,0.39019 1.03134,0.83094 0.53008,0.44072 0.99602,0.8131 1.03534,0.82762 0.09,0.0324 0.54396,-0.70487 0.7419,-1.20581 0.48818,-1.23514 0.1616,-2.63319 -0.95551,-4.08999 l -0.4906,-0.63984 0.3312,0.13688 c 0.74606,0.30826 1.78673,1.00165 2.3833,1.58797 0.83805,0.82363 1.12813,1.41291 1.17976,2.397 0.0496,0.94461 -0.1232,1.63486 -0.68763,2.74672 l -0.44179,0.87021 0.32879,0.20416 c 0.18076,0.11241 0.56146,0.33604 0.84569,0.49749 0.28457,0.16083 0.5047,0.30536 0.48947,0.32059 -0.0388,0.0388 -5.66777,1.5557 -5.77303,1.55565 -0.0534,-2e-5 -0.0859,-1.14553 -0.0859,-3.03447 0,-1.66902 0.0304,-3.02119 0.0674,-3.00482 z"
       style="fill:#000000;stroke-width:0.08903186"
       inkscape:connector-curvature="0" />
  </g>
</svg>
